The.Odd.Couple.1968.BRRip.x264.AC3-PsiX.mkv

Format : Matroska
Format version : Version 2
File size : 1.44 GiB
Duration : 1h 45mn
Overall bit rate : 1 959 Kbps
Encoded date : UTC 2013-06-07 23:28:11
Writing application : mkvmerge v6.1.0 ('Old Devil') built on Mar 2 2013 14:32:37
Writing library : libebml v1.3.0 + libmatroska v1.4.0

Video
ID : 1
Format : AVC
Format/Info : Advanced Video Codec
Format profile : High@L4.1
Format settings, CABAC : Yes
Format settings, ReFrames : 8 frames
Codec ID : V_MPEG4/ISO/AVC
Duration : 1h 45mn
Bit rate : 1 509 Kbps
Width : 720 pixels
Height : 304 pixels
Display aspect ratio : 2.35:1
Frame rate mode : Constant
Frame rate : 23.976 fps
Color space : YUV
Chroma subsampling : 4:2:0
Bit depth : 8 bits
Scan type : Progressive
Bits/(Pixel*Frame) : 0.288
Stream size : 1.08 GiB (75%)
Writing library : x264 core 130 r2273 b3065e6


Audio
ID : 2
Format : AC-3
Format/Info : Audio Coding 3
Mode extension : CM (complete main)
Format settings, Endianness : Big
Codec ID : A_AC3
Duration : 1h 45mn
Bit rate mode : Constant
Bit rate : 448 Kbps
Channel(s) : 6 channels
Channel positions : Front: L C R, Side: L R, LFE
Sampling rate : 48.0 KHz
Bit depth : 16 bits
Compression mode : Lossy
Stream size : 338 MiB (23%)
Language : English
Default : Yes
Forced : No






Encoded............: PsiX
Source.............: 1080p-AMIABLE
Subs..........srt...English, Romanian, German, Greek, Spanish, Bulgarian, Turkish